Glee.S03E06.HDTV.XviD-LOL [Arnarcool]

Hope you enjoy and please seed :D

SCREENSHOTS:
 
http://image.bayimg.com/iakljaadp.jpg
 
http://image.bayimg.com/iaklkaadp.jpg
 
http://image.bayimg.com/iakllaadp.jpg


INFO: 


Format                           : AVI
Format/Info                      : Audio Video Interleave
File size                        : 349 MiB
Duration                         : 39mn 37s
Overall bit rate mode            : Variable
Overall bit rate                 : 1 233 Kbps
Writing application              : Lavf53.2.0

Video
ID                               : 0
Format                           : MPEG-4 Visual
Format profile                   : Advanced Simple@L5
Format settings, BVOP            : 2
Format settings, QPel            : No
Format settings, GMC             : No warppoints
Format settings, Matrix          : Default (H.263)
Codec ID                         : XVID
Codec ID/Hint                    : XviD
Duration                         : 39mn 36s
Bit rate                         : 1 067 Kbps
Width                            : 624 pixels
Height                           : 352 pixels
Display aspect ratio             : 16:9
Frame rate                       : 23.976 fps
Color space                      : YUV
Chroma subsampling               : 4:2:0
Bit depth                        : 8 bits
Scan type                        : Progressive
Compression mode                 : Lossy
Bits/(Pixel*Frame)               : 0.203
Stream size                      : 302 MiB (87%)
Writing library                  : XviD 63

Audio
ID                               : 1
Format                           : MPEG Audio
Format version                   : Version 1
Format profile                   : Layer 3
Mode                             : Joint stereo
Mode extension                   : MS Stereo
Codec ID                         : 55
Codec ID/Hint                    : MP3
Duration                         : 39mn 37s
Bit rate mode                    : Variable
Bit rate                         : 153 Kbps
Channel(s)                       : 2 channels
Sampling rate                    : 48.0 KHz
Compression mode                 : Lossy
Stream size                      : 43.2 MiB (12%)
Alignment                        : Aligned on interleaves
Interleave, duration             : 24 ms (0.58 video frame)

